{"title":"Unfaithful*2002*[DVD5][PAL][ENG, POL]","uid":5842347,"size":4499931136,"categoryP":"video","categoryS":"movies_dvdr","magnet":"?xt=urn:btih:662de097b397ebe5a9ae100417673b60d15b4389&amp;dn=Unfaithful%2A2002%2A%5BDVD5%5D%5BPAL%5D%5BENG%2C+POL%5D&amp;tr=udp%3A%2F%2Ftracker.openbittorrent.com%3A80&amp;tr=udp%3A%2F%2Fopen.demonii.com%3A1337&amp;tr=udp%3A%2F%2Ftracker.coppersurfer.tk%3A6969&amp;tr=udp%3A%2F%2Fexodus.desync.com%3A6969","seeders":0,"leechers":0,"uploader":"albedo040","files":1,"time":1285013010,"description":"Unfaithful*2002*[DVD5][PAL][ENG, POL]\n\nGeneral information:\nCountry: USA, Germany, France \nRelease: 10 May 2002\nGenre: Drama, Romance, Thriller \nDirector: Adrian Lyne\nScreenplay: Alvin Sargent, William Broyles\nOriginal Music: Jan A.P. Kaczmarek\nCinematography by: Peter Biziou \nDuration: 1h 55mn\nLanguage: English, Polish\nSubtitles: English, Polish\nRating: 7.8/10 - 3496 votes\n\nCast:\nDiane Lane  ...  Connie Sumner  \nErik Per Sullivan  ...  Charlie Sumner  \nRichard Gere  ...  Ed Sumner  \nOlivier Martinez  ...  Paul Martel  \nMyra Lucretia Taylor  ...  Gloria  \nMichelle Monaghan  ...  Lindsay  \nChad Lowe  ...  Bill Stone  \nJoseph Badalucco Jr.  ...  Train conductor  \nErich Anderson  ...  Bob Gaylord  \nDamon Gupton  ...  Other businessman  \nKate Burton  ...  Tracy  \nMargaret Colin  ...  Sally  \nMarc Forget  ...  CafÃƒÂ© bartender  \nLarry Gleason  ...  Tim  \nDominic Chianese  ...  Frank Wilson  \n\nPlot:\nA New York suburban couple's marriage goes dangerously awry when the wife indulges in an adulterous fling.\n\nSpecifications:\nGeneral\nFormat                           : MPEG-PS\nOverall bit rate                 : 5 359 Kbps\n\nVideo\nFormat                           : MPEG Video\nFormat version                   : Version 2\nFormat settings, BVOP            : Yes\nFormat settings, Matrix          : Default\nBit rate mode                    : Variable\nBit rate                         : 4 421 Kbps\nNominal bit rate                 : 7 782 Kbps\nWidth                            : 720 pixels\nHeight                           : 576 pixels\nDisplay aspect ratio             : 16:9\nFrame rate                       : 25.000 fps\nStandard                         : PAL\n\nAudio 1\nFormat                           : AC-3\nFormat/Info                      : Audio Coding 3\nMode extension                   : CM (complete main)\nBit rate mode                    : Constant\nBit rate                         : 448 Kbps\nChannel(s)                       : 6 channels\nChannel positions                : Front: L C R, Side: L R, LFE\nSampling rate                    : 48.0 KHz\nBit depth                        : 16 bits\nVideo delay                      : -320ms\nStream size                      : 85.6 MiB (8%)\n\nAudio 2\nFormat                           : AC-3\nFormat/Info                      : Audio Coding 3\nMode extension                   : CM (complete main)\nBit rate mode                    : Constant\nBit rate                         : 384 Kbps\nChannel(s)                       : 6 channels\nChannel positions                : Front: L C R, Side: L R, LFE\nSampling rate                    : 48.0 KHz\nBit depth                        : 16 bits\nVideo delay                      : -320ms\nStream size                      : 73.4 MiB (7%)\n\nText \nFormat                           : RLE\nFormat/Info                      : Run-length encoding\n","torrent":{"xt":"urn:btih:662de097b397ebe5a9ae100417673b60d15b4389","amp;dn":"Unfaithful%2A2002%2A%5BDVD5%5D%5BPAL%5D%5BENG%2C+POL%5D","amp;tr":["udp%3A%2F%2Ftracker.openbittorrent.com%3A80","udp%3A%2F%2Fopen.demonii.com%3A1337","udp%3A%2F%2Ftracker.coppersurfer.tk%3A6969","udp%3A%2F%2Fexodus.desync.com%3A6969"],"infoHash":"662de097b397ebe5a9ae100417673b60d15b4389","infoHashBuffer":{"type":"Buffer","data":[102,45,224,151,179,151,235,229,169,174,16,4,23,103,59,96,209,91,67,137]},"announce":[],"urlList":[]}}